<svg width="32" height="32" viewBox="0 0 32 32" xmlns="http://www.w3.org/2000/svg" role="img" aria-hidden="true">
  <defs>
    <linearGradient id="waGrad" x1="0%" y1="0%" x2="100%" y2="100%">
      <stop offset="0%" stop-color="#25D366"/>
      <stop offset="100%" stop-color="#20B858"/>
    </linearGradient>
  </defs>
  <circle cx="16" cy="16" r="15" fill="url(#waGrad)"/>
  <path
    fill="#FFFFFF"
    d="M21.4 10.7A6.9 6.9 0 0 0 16 8a6.9 6.9 0 0 0-6.9 6.9c0 1.2.3 2.3.9 3.3L9 23l4.1-1.1c.9.5 1.9.8 2.9.8A6.9 6.9 0 0 0 21.4 10.7zm-5.4 9.2c-.9 0-1.7-.2-2.5-.7l-.2-.1-2.4.6.6-2.3-.1-.2a4.4 4.4 0 0 1-.6-2.2 4.5 4.5 0 0 1 4.5-4.5c1.2 0 2.3.5 3.1 1.3a4.5 4.5 0 0 1 1.4 3.2 4.5 4.5 0 0 1-4.5 4.9zm2.5-3.3c-.1-.1-.8-.4-1.5-.7-.2-.1-.4-.1-.5.1l-.3.4c-.1.1-.2.1-.4 0-.2-.1-.8-.3-1.5-1-.5-.4-.8-.9-.9-1-.1-.1 0-.2.1-.3l.2-.3c.1-.1.1-.3 0-.4l-.7-1.6c-.2-.4-.4-.4-.6-.4h-.5c-.2 0-.4.1-.5.2-.2.2-.7.7-.7 1.6 0 .9.6 1.8.7 1.9.1.2 1.2 1.9 3 2.7.4.2.7.3 1 .4.4.2.8.3 1.2.2.4-.1 1.2-.5 1.3-1 .2-.5.2-.9.1-1 0-.1-.1-.1-.1-.2z"
  />
</svg>


